# xmcd
#
# Track frame offsets:
#	150
#	13965
#	36338
#	56548
#	78226
#	98305
#	112904
#	125799
#	131944
#	149364
#	160612
#	178194
#	213900
#	225914
#	238820
#	259895
#
# Disc length: 3698
#
# Revision: 1
# Processed by: cddbd v1.5.1PL0 Copyright (c) Steve Scherf et al.
# Submitted via: CDex 1.51
# Normalized: r0:TDELIM( - )
#
DISCID=d90e7010
DTITLE=Various Artist - Life Is A Long Song
DYEAR=2004
DGENRE=Blues
TTITLE0=Jesus and Mary Chain - Just Like Honey
TTITLE1=The James - Ring The Bells
TTITLE2=The James - Out To Get You
TTITLE3=The Lost Patrol - Restating The Obvious
TTITLE4=The Lost Patrol - Going Going Gone
TTITLE5=The Sunday Drivers - Often
TTITLE6=Adam Green - Friends Of Mine
TTITLE7=Coco Rosie - Not For Sale
TTITLE8=Marlango - It's Alright
TTITLE9=Laurel Music - Dreams and Lies
TTITLE10=Solitude and Co - Tear Us Apart
TTITLE11=Frida Selander - Chocolate Kisses
TTITLE12=Jose Gonzalez - Heartbeats
TTITLE13=Jose Gonzalez - Hand On Your Heart
TTITLE14=Frida - Scars In Me
TTITLE15=The Pixies - Where Is My Mind? (again)
EXTD=YEAR: 2004
EXTT0=
EXTT1=
EXTT2=
EXTT3=
EXTT4=
EXTT5=
EXTT6=
EXTT7=
EXTT8=
EXTT9=
EXTT10=
EXTT11=
EXTT12=
EXTT13=
EXTT14=
EXTT15=
PLAYORDER=
